<svg xmlns="http://www.w3.org/2000/svg" viewBox="0 0 1100 750">
    31|<defs>
    32|<marker id="arrowhead" markerWidth="10" markerHeight="7" refX="9" refY="3.5" orient="auto"><polygon points="0 0, 10 3.5, 0 7" fill="#64748b"/></marker>
    33|<marker id="arrow-cyan" markerWidth="10" markerHeight="7" refX="9" refY="3.5" orient="auto"><polygon points="0 0, 10 3.5, 0 7" fill="#22d3ee"/></marker>
    34|<marker id="arrow-green" markerWidth="10" markerHeight="7" refX="9" refY="3.5" orient="auto"><polygon points="0 0, 10 3.5, 0 7" fill="#34d399"/></marker>
    35|<marker id="arrow-amber" markerWidth="10" markerHeight="7" refX="9" refY="3.5" orient="auto"><polygon points="0 0, 10 3.5, 0 7" fill="#fbbf24"/></marker>
    36|<marker id="arrow-rose" markerWidth="10" markerHeight="7" refX="9" refY="3.5" orient="auto"><polygon points="0 0, 10 3.5, 0 7" fill="#fb7185"/></marker>
    37|<pattern id="grid" width="40" height="40" patternUnits="userSpaceOnUse"><path d="M 40 0 L 0 0 0 40" fill="none" stroke="#1e293b" stroke-width="0.5"/></pattern>
    38|</defs>
    39|<rect width="100%" height="100%" fill="url(#grid)"/>
    40|
    41|<!-- SM-DP+ -->
    42|<rect x="370" y="60" width="200" height="70" rx="8" fill="rgba(6,78,59,0.4)" stroke="#34d399" stroke-width="1.5"/>
    43|<text x="470" y="90" fill="white" font-size="12" font-weight="600" text-anchor="middle">SM-DP+</text>
    44|<text x="470" y="108" fill="#94a3b8" font-size="9" text-anchor="middle">Profile Factory + Delivery</text>
    45|
    46|<!-- Operator -->
    47|<rect x="140" y="100" width="160" height="60" rx="6" fill="rgba(30,41,59,0.5)" stroke="#94a3b8" stroke-width="1.5"/>
    48|<text x="220" y="125" fill="white" font-size="12" font-weight="600" text-anchor="middle">Operator (MNO)</text>
    49|<text x="220" y="143" fill="#94a3b8" font-size="9" text-anchor="middle">Orders + OTA Management</text>
    50|
    51|<!-- LPA -->
    52|<rect x="370" y="440" width="200" height="140" rx="8" fill="rgba(8,51,68,0.4)" stroke="#22d3ee" stroke-width="1.5"/>
    53|<text x="470" y="468" fill="white" font-size="12" font-weight="600" text-anchor="middle">LPA</text>
    54|<text x="470" y="486" fill="#94a3b8" font-size="9" text-anchor="middle">Local Profile Assistant</text>
    55|<line x1="395" y1="496" x2="545" y2="496" stroke="#22d3ee" stroke-width="0.5" opacity="0.3"/>
    56|<text x="470" y="512" fill="#22d3ee" font-size="8" text-anchor="middle">LDS — Discovery Service</text>
    57|<text x="470" y="528" fill="#22d3ee" font-size="8" text-anchor="middle">LPD — Profile Download</text>
    58|<text x="470" y="544" fill="#22d3ee" font-size="8" text-anchor="middle">LUI — User Interface</text>
    59|
    60|<!-- eUICC -->
    61|<rect x="660" y="440" width="200" height="140" rx="8" fill="rgba(76,29,149,0.4)" stroke="#a78bfa" stroke-width="1.5"/>
    62|<text x="760" y="468" fill="white" font-size="12" font-weight="600" text-anchor="middle">eUICC</text>
    63|<text x="760" y="486" fill="#94a3b8" font-size="9" text-anchor="middle">Embedded Secure Element</text>
    64|<line x1="685" y1="496" x2="835" y2="496" stroke="#a78bfa" stroke-width="0.5" opacity="0.3"/>
    65|<text x="760" y="512" fill="#a78bfa" font-size="8" text-anchor="middle">ECASD — Root of Trust</text>
    66|<text x="760" y="528" fill="#a78bfa" font-size="8" text-anchor="middle">ISD-R — Profile Manager</text>
    67|<text x="760" y="544" fill="#a78bfa" font-size="8" text-anchor="middle">ISD-P × N — Profile Containers</text>
    68|
    69|<!-- SM-DS -->
    70|<rect x="660" y="60" width="180" height="60" rx="6" fill="rgba(120,53,15,0.3)" stroke="#fbbf24" stroke-width="1.5"/>
    71|<text x="750" y="85" fill="white" font-size="11" font-weight="600" text-anchor="middle">SM-DS</text>
    72|<text x="750" y="103" fill="#94a3b8" font-size="9" text-anchor="middle">Discovery Server</text>
    73|
    74|<!-- CI (root) -->
    75|<rect x="895" y="250" width="150" height="50" rx="6" fill="rgba(136,19,55,0.4)" stroke="#fb7185" stroke-width="1.5"/>
    76|<text x="970" y="272" fill="white" font-size="11" font-weight="600" text-anchor="middle">GSMA CI</text>
    77|<text x="970" y="288" fill="#94a3b8" font-size="9" text-anchor="middle">Certificate Issuer</text>
    78|
    79|<!-- Device container -->
    80|<rect x="325" y="410" width="570" height="190" rx="12" fill="rgba(251,191,36,0.03)" stroke="#fbbf24" stroke-width="0.8" stroke-dasharray="8,4"/>
    81|<text x="340" y="426" fill="#fbbf24" font-size="9" font-weight="600">IoT / Consumer Device</text>
    82|
    83|<!-- INTERFACES -->
    84|<!-- ES2+: Operator → SM-DP+ -->
    85|<line x1="300" y1="122" x2="368" y2="100" stroke="#34d399" stroke-width="1.5" marker-end="url(#arrow-green)"/>
    86|<text x="330" y="108" fill="#34d399" font-size="8">ES2+</text>
    87|
    88|<!-- ES12: SM-DP+ → SM-DS -->
    89|<line x1="570" y1="90" x2="658" y2="82" stroke="#fbbf24" stroke-width="1.5" marker-end="url(#arrow-amber)"/>
    90|<text x="615" y="75" fill="#fbbf24" font-size="8">ES12</text>
    91|
    92|<!-- ES9+: SM-DP+ → LPA -->
    93|<line x1="470" y1="130" x2="470" y2="438" stroke="#22d3ee" stroke-width="1.5" marker-end="url(#arrow-cyan)"/>
    94|<text x="485" y="285" fill="#22d3ee" font-size="8">ES9+</text>
    95|
    96|<!-- ES8+: SM-DP+ ↔ eUICC (via LPA) -->
    97|<path d="M 470 160 Q 470 220 550 270 L 700 270 Q 760 270 760 300 L 760 438" fill="none" stroke="#a78bfa" stroke-width="1.5" stroke-dasharray="5,3" marker-end="url(#arrowhead)"/>
    98|<text x="590" y="240" fill="#a78bfa" font-size="8">ES8+ (end-to-end, via LPA)</text>
    99|
   100|<!-- ES11: LPA → SM-DS -->
   101|<path d="M 530 450 L 610 450 Q 660 450 660 250 L 670 130" fill="none" stroke="#fbbf24" stroke-width="1.5" marker-end="url(#arrow-amber)"/>
   102|<text x="660" y="295" fill="#fbbf24" font-size="8">ES11</text>
   103|
   104|<!-- ES10a/b/c: LPA ↔ eUICC -->
   105|<line x1="570" y1="490" x2="658" y2="490" stroke="#22d3ee" stroke-width="1.5" marker-end="url(#arrow-cyan)"/>
   106|<text x="614" y="482" fill="#22d3ee" font-size="8">ES10a/b/c</text>
   107|
   108|<!-- ES6: Operator → eUICC -->
   109|<path d="M 220 160 Q 220 400 660 500" fill="none" stroke="#94a3b8" stroke-width="1" stroke-dasharray="4,3" marker-end="url(#arrowhead)"/>
   110|<text x="340" y="340" fill="#64748b" font-size="8">ES6 (OTA)</text>
   111|
   112|<!-- ESci: CI → everyone -->
   113|<path d="M 895 275 L 910 275" fill="none" stroke="#fb7185" stroke-width="1" stroke-dasharray="4,3"/>
   114|<text x="903" y="268" fill="#fb7185" font-size="7">ESci</text>
   115|<path d="M 895 270 L 860 270 L 860 120 L 842 120" fill="none" stroke="#fb7185" stroke-width="0.8" stroke-dasharray="3,3" opacity="0.6"/>
   116|<path d="M 895 272 L 880 272 L 880 500 L 862 500" fill="none" stroke="#fb7185" stroke-width="0.8" stroke-dasharray="3,3" opacity="0.6"/>
   117|
   118|<!-- Legend -->
   119|<text x="30" y="650" fill="white" font-size="10" font-weight="600">Legend</text>
   120|<rect x="30" y="662" width="14" height="10" rx="2" fill="rgba(6,78,59,0.4)" stroke="#34d399" stroke-width="1"/><text x="50" y="670" fill="#94a3b8" font-size="8">SM-DP+</text>
   121|<rect x="130" y="662" width="14" height="10" rx="2" fill="rgba(8,51,68,0.4)" stroke="#22d3ee" stroke-width="1"/><text x="150" y="670" fill="#94a3b8" font-size="8">LPA / Device</text>
   122|<rect x="255" y="662" width="14" height="10" rx="2" fill="rgba(76,29,149,0.4)" stroke="#a78bfa" stroke-width="1"/><text x="275" y="670" fill="#94a3b8" font-size="8">eUICC / Profiles</text>
   123|<rect x="395" y="662" width="14" height="10" rx="2" fill="rgba(120,53,15,0.3)" stroke="#fbbf24" stroke-width="1"/><text x="415" y="670" fill="#94a3b8" font-size="8">SM-DS</text>
   124|<rect x="485" y="662" width="14" height="10" rx="2" fill="rgba(136,19,55,0.4)" stroke="#fb7185" stroke-width="1"/><text x="505" y="670" fill="#94a3b8" font-size="8">Security / CI</text>
   125|<rect x="610" y="662" width="14" height="10" rx="2" fill="rgba(30,41,59,0.5)" stroke="#94a3b8" stroke-width="1"/><text x="630" y="670" fill="#94a3b8" font-size="8">Operator</text>
   126|
   127|<text x="30" y="695" fill="#64748b" font-size="8">Solid lines = direct interface • Dashed = tunnelled/OTA • ES8+ is end-to-end encrypted, LPA is a pass-through</text>
   128|</svg>