<svg xmlns="http://www.w3.org/2000/svg" viewBox="0 0 1100 700">
<defs>
<marker id="a10r" markerWidth="10" markerHeight="7" refX="9" refY="3.5" orient="auto"><polygon points="0 0, 10 3.5, 0 7" fill="#fb7185"/></marker>
<marker id="a10g" markerWidth="10" markerHeight="7" refX="9" refY="3.5" orient="auto"><polygon points="0 0, 10 3.5, 0 7" fill="#34d399"/></marker>
<marker id="a10o" markerWidth="10" markerHeight="7" refX="9" refY="3.5" orient="auto"><polygon points="0 0, 10 3.5, 0 7" fill="#fb923c"/></marker>
<marker id="a10y" markerWidth="10" markerHeight="7" refX="9" refY="3.5" orient="auto"><polygon points="0 0, 10 3.5, 0 7" fill="#fbbf24"/></marker>
<marker id="a10v" markerWidth="10" markerHeight="7" refX="9" refY="3.5" orient="auto"><polygon points="0 0, 10 3.5, 0 7" fill="#a78bfa"/></marker>
<marker id="a10s" markerWidth="10" markerHeight="7" refX="9" refY="3.5" orient="auto"><polygon points="0 0, 10 3.5, 0 7" fill="#64748b"/></marker>
<pattern id="g10" width="40" height="40" patternUnits="userSpaceOnUse"><path d="M 40 0 L 0 0 0 40" fill="none" stroke="#1e293b" stroke-width="0.5"/></pattern>
</defs>
<rect width="100%" height="100%" fill="url(#g10)"/>

<!-- Title -->
<text x="550" y="28" fill="white" font-size="14" font-weight="600" text-anchor="middle">SGP.32 Extended PKI and IoT Trust Models</text>

<!-- ===== EXTENDED PKI SECTION ===== -->
<rect x="30" y="42" width="200" height="22" rx="4" fill="rgba(136,19,55,0.3)" stroke="#fb7185" stroke-width="1"/>
<text x="130" y="57" fill="#fb7185" font-size="10" font-weight="600" text-anchor="middle">Extended PKI Chain</text>

<!-- CI Root -->
<rect x="380" y="80" width="240" height="50" rx="8" fill="rgba(136,19,55,0.45)" stroke="#fb7185" stroke-width="2"/>
<text x="500" y="102" fill="white" font-size="12" font-weight="600" text-anchor="middle">GSMA Certificate Issuer (CI)</text>
<text x="500" y="120" fill="#fb7185" font-size="8" text-anchor="middle">Root CA — PK.CI.ECDSA</text>

<!-- EUM -->
<rect x="100" y="190" width="180" height="50" rx="6" fill="rgba(120,53,15,0.35)" stroke="#fbbf24" stroke-width="1.5"/>
<text x="190" y="212" fill="white" font-size="11" font-weight="600" text-anchor="middle">CERT.EUM.ECDSA</text>
<text x="190" y="230" fill="#94a3b8" font-size="8" text-anchor="middle">EUM (SAS-UP)</text>

<!-- DP/DS -->
<rect x="360" y="190" width="220" height="50" rx="6" fill="rgba(6,78,59,0.4)" stroke="#34d399" stroke-width="1.5"/>
<text x="470" y="212" fill="white" font-size="11" font-weight="600" text-anchor="middle">CERT.DPauth / CERT.DSauth</text>
<text x="470" y="230" fill="#94a3b8" font-size="8" text-anchor="middle">SM-DP+ / SM-DS Auth (SAS-SM)</text>

<!-- eUICC -->
<rect x="100" y="300" width="180" height="50" rx="6" fill="rgba(76,29,149,0.4)" stroke="#a78bfa" stroke-width="1.5"/>
<text x="190" y="322" fill="white" font-size="11" font-weight="600" text-anchor="middle">CERT.EUICC.ECDSA</text>
<text x="190" y="340" fill="#94a3b8" font-size="8" text-anchor="middle">eUICC (per chip)</text>

<!-- CI → EUM -->
<line x1="420" y1="130" x2="250" y2="188" stroke="#fb7185" stroke-width="1.5" marker-end="url(#a10r)"/>
<text x="330" y="165" fill="#fb7185" font-size="8">signs</text>

<!-- CI → DP/DS -->
<line x1="500" y1="130" x2="470" y2="188" stroke="#fb7185" stroke-width="1.5" marker-end="url(#a10r)"/>
<text x="510" y="165" fill="#fb7185" font-size="8">signs</text>

<!-- EUM → eUICC -->
<line x1="190" y1="240" x2="190" y2="298" stroke="#fbbf24" stroke-width="1.5" marker-end="url(#a10y)"/>
<text x="205" y="268" fill="#fbbf24" font-size="8">signs</text>

<!-- eIM Signing -->
<rect x="660" y="190" width="220" height="50" rx="6" fill="rgba(251,146,60,0.4)" stroke="#fb923c" stroke-width="1.5"/>
<text x="770" y="212" fill="white" font-size="11" font-weight="600" text-anchor="middle">CERT.EIM.ECDSA</text>
<text x="770" y="230" fill="#94a3b8" font-size="8" text-anchor="middle">eIM Signing (SAS-SM)</text>

<!-- CI → eIM Signing -->
<line x1="550" y1="130" x2="710" y2="188" stroke="#fb7185" stroke-width="1.5" marker-end="url(#a10r)"/>

<!-- eIM TLS (separate from CI) -->
<rect x="660" y="300" width="220" height="50" rx="6" fill="rgba(251,146,60,0.25)" stroke="#fb923c" stroke-width="1.5" stroke-dasharray="5,3"/>
<text x="770" y="322" fill="white" font-size="11" font-weight="600" text-anchor="middle">CERT.EIM.TLS</text>
<text x="770" y="340" fill="#94a3b8" font-size="8" text-anchor="middle">eIM Transport (any CA)</text>

<!-- Label: NOT signed by CI -->
<text x="770" y="370" fill="#fb923c" font-size="8" text-anchor="middle">Not signed by GSMA CI — Standard X.509 PKI</text>
<line x1="600" y1="375" x2="940" y2="375" stroke="#fb923c" stroke-width="0.5" opacity="0.3"/>

<!-- ===== TRUST MODELS SECTION ===== -->
<rect x="30" y="400" width="200" height="22" rx="4" fill="rgba(8,51,68,0.3)" stroke="#22d3ee" stroke-width="1"/>
<text x="130" y="415" fill="#22d3ee" font-size="10" font-weight="600" text-anchor="middle">Device Trust Models</text>

<!-- Model 1: Full PKI -->
<rect x="80" y="435" width="290" height="130" rx="8" fill="rgba(6,78,59,0.15)" stroke="#34d399" stroke-width="1"/>
<text x="225" y="458" fill="#34d399" font-size="12" font-weight="600" text-anchor="middle">Full PKI Validation</text>
<text x="225" y="476" fill="#94a3b8" font-size="9" text-anchor="middle">Rich Devices (Linux Gateways)</text>
<line x1="110" y1="486" x2="340" y2="486" stroke="#34d399" stroke-width="0.5" opacity="0.3"/>
<text x="225" y="505" fill="#94a3b8" font-size="8" text-anchor="middle">Full TLS stack validates</text>
<text x="225" y="521" fill="#94a3b8" font-size="8" text-anchor="middle">CERT.EIM.TLS against OS trust store</text>
<text x="225" y="537" fill="#94a3b8" font-size="8" text-anchor="middle">No special eUICC config needed</text>
<rect x="160" y="548" width="130" height="10" rx="3" fill="rgba(34,211,238,0.2)"/>
<text x="225" y="556" fill="#22d3ee" font-size="7" text-anchor="middle">TLS/DTLS standard</text>

<!-- Model 2: Certificate Pinning -->
<rect x="400" y="435" width="290" height="130" rx="8" fill="rgba(251,146,60,0.15)" stroke="#fb923c" stroke-width="1"/>
<text x="545" y="458" fill="#fb923c" font-size="12" font-weight="600" text-anchor="middle">Certificate Pinning</text>
<text x="545" y="476" fill="#94a3b8" font-size="9" text-anchor="middle">Constrained Devices (MCU RTOS)</text>
<line x1="430" y1="486" x2="660" y2="486" stroke="#fb923c" stroke-width="0.5" opacity="0.3"/>
<text x="545" y="505" fill="#94a3b8" font-size="8" text-anchor="middle">IPA stores trustedCertificateTls</text>
<text x="545" y="521" fill="#94a3b8" font-size="8" text-anchor="middle">Pins to specific cert or CA</text>
<text x="545" y="537" fill="#94a3b8" font-size="8" text-anchor="middle">No online CA validation needed</text>
<rect x="475" y="548" width="140" height="10" rx="3" fill="rgba(251,146,60,0.2)"/>
<text x="545" y="556" fill="#fb923c" font-size="7" text-anchor="middle">Most common IoT model</text>

<!-- Model 3: Raw PK -->
<rect x="720" y="435" width="290" height="130" rx="8" fill="rgba(76,29,149,0.15)" stroke="#a78bfa" stroke-width="1"/>
<text x="865" y="458" fill="#a78bfa" font-size="12" font-weight="600" text-anchor="middle">Raw Public Key (RFC 7250)</text>
<text x="865" y="476" fill="#94a3b8" font-size="9" text-anchor="middle">Ultra-Constrained (Bare-Metal)</text>
<line x1="750" y1="486" x2="980" y2="486" stroke="#a78bfa" stroke-width="0.5" opacity="0.3"/>
<text x="865" y="505" fill="#94a3b8" font-size="8" text-anchor="middle">IPA stores trustedEimPkTls</text>
<text x="865" y="521" fill="#94a3b8" font-size="8" text-anchor="middle">Raw ECDSA public key only</text>
<text x="865" y="537" fill="#94a3b8" font-size="8" text-anchor="middle">No X.509 parsing required</text>
<rect x="800" y="548" width="130" height="10" rx="3" fill="rgba(76,29,149,0.2)"/>
<text x="865" y="556" fill="#a78bfa" font-size="7" text-anchor="middle">Bare-metal RTOS</text>

<!-- ===== DTLS FEATURES ===== -->
<rect x="30" y="582" width="200" height="22" rx="4" fill="rgba(120,53,15,0.3)" stroke="#fbbf24" stroke-width="1"/>
<text x="130" y="597" fill="#fbbf24" font-size="10" font-weight="600" text-anchor="middle">DTLS Key Features</text>

<rect x="80" y="615" width="240" height="52" rx="6" fill="rgba(30,41,59,0.4)" stroke="#64748b" stroke-width="1"/>
<text x="200" y="636" fill="white" font-size="10" font-weight="600" text-anchor="middle">Connection ID (RFC 9146)</text>
<text x="200" y="654" fill="#94a3b8" font-size="8" text-anchor="middle">Session survives IP changes across PSM sleep</text>

<rect x="350" y="615" width="240" height="52" rx="6" fill="rgba(30,41,59,0.4)" stroke="#64748b" stroke-width="1"/>
<text x="470" y="636" fill="white" font-size="10" font-weight="600" text-anchor="middle">UDP-Based Transport</text>
<text x="470" y="654" fill="#94a3b8" font-size="8" text-anchor="middle">CoAP/DTLS for NB-IoT, LTE-M, LoRaWAN</text>

<rect x="620" y="615" width="240" height="52" rx="6" fill="rgba(30,41,59,0.4)" stroke="#64748b" stroke-width="1"/>
<text x="740" y="636" fill="white" font-size="10" font-weight="600" text-anchor="middle">Mandatory Cipher Suites</text>
<text x="740" y="654" fill="#94a3b8" font-size="8" text-anchor="middle">ECDHE-ECDSA-AES-128/256-GCM</text>

<rect x="890" y="615" width="140" height="52" rx="6" fill="rgba(30,41,59,0.4)" stroke="#64748b" stroke-width="1"/>
<text x="960" y="636" fill="white" font-size="10" font-weight="600" text-anchor="middle">SNI Required</text>
<text x="960" y="654" fill="#94a3b8" font-size="8" text-anchor="middle">RFC 6066 ClientHello</text>
</svg>
