<svg xmlns="http://www.w3.org/2000/svg" viewBox="0 0 1000 620">
<defs>
<marker id="a14g" markerWidth="10" markerHeight="7" refX="9" refY="3.5" orient="auto"><polygon points="0 0, 10 3.5, 0 7" fill="#34d399"/></marker>
<marker id="a14r" markerWidth="10" markerHeight="7" refX="9" refY="3.5" orient="auto"><polygon points="0 0, 10 3.5, 0 7" fill="#fb7185"/></marker>
<marker id="a14c" markerWidth="10" markerHeight="7" refX="9" refY="3.5" orient="auto"><polygon points="0 0, 10 3.5, 0 7" fill="#22d3ee"/></marker>
<marker id="a14v" markerWidth="10" markerHeight="7" refX="9" refY="3.5" orient="auto"><polygon points="0 0, 10 3.5, 0 7" fill="#a78bfa"/></marker>
<marker id="a14o" markerWidth="10" markerHeight="7" refX="9" refY="3.5" orient="auto"><polygon points="0 0, 10 3.5, 0 7" fill="#fb923c"/></marker>
<pattern id="g14" width="40" height="40" patternUnits="userSpaceOnUse"><path d="M 40 0 L 0 0 0 40" fill="none" stroke="#1e293b" stroke-width="0.5"/></pattern>
</defs>
<rect width="100%" height="100%" fill="url(#g14)"/>

<text x="500" y="28" fill="white" font-size="14" font-weight="600" text-anchor="middle">Profile State Management via PSMO (SGP.32)</text>

<!-- ===== PSMO FLOW ===== -->
<rect x="30" y="42" width="300" height="22" rx="4" fill="rgba(251,146,60,0.3)" stroke="#fb923c" stroke-width="1"/>
<text x="180" y="57" fill="#fb923c" font-size="10" font-weight="600" text-anchor="middle">PSMO Execution Flow</text>

<!-- Flow boxes -->
<rect x="40" y="80" width="170" height="40" rx="6" fill="rgba(251,146,60,0.35)" stroke="#fb923c" stroke-width="1.5"/>
<text x="125" y="98" fill="white" font-size="10" font-weight="600" text-anchor="middle">eIM signs PSMO</text>
<text x="125" y="112" fill="#94a3b8" font-size="7" text-anchor="middle">SK.EIM.ECDSA</text>

<text x="225" y="100" fill="#fb923c" font-size="14">→</text>

<rect x="250" y="80" width="170" height="40" rx="6" fill="rgba(8,51,68,0.35)" stroke="#22d3ee" stroke-width="1.5"/>
<text x="335" y="98" fill="white" font-size="10" font-weight="600" text-anchor="middle">IPA delivers</text>
<text x="335" y="112" fill="#94a3b8" font-size="7" text-anchor="middle">ES10b.LoadEuiccPackage</text>

<text x="435" y="100" fill="#22d3ee" font-size="14">→</text>

<rect x="460" y="80" width="170" height="40" rx="6" fill="rgba(76,29,149,0.35)" stroke="#a78bfa" stroke-width="1.5"/>
<text x="545" y="98" fill="white" font-size="10" font-weight="600" text-anchor="middle">eUICC verifies</text>
<text x="545" y="112" fill="#94a3b8" font-size="7" text-anchor="middle">eIM signature + counter</text>

<text x="645" y="100" fill="#a78bfa" font-size="14">→</text>

<rect x="670" y="80" width="170" height="40" rx="6" fill="rgba(6,78,59,0.35)" stroke="#34d399" stroke-width="1.5"/>
<text x="755" y="98" fill="white" font-size="10" font-weight="600" text-anchor="middle">eUICC executes</text>
<text x="755" y="112" fill="#94a3b8" font-size="7" text-anchor="middle">+ signs result</text>

<text x="855" y="100" fill="#34d399" font-size="14">→</text>

<rect x="870" y="80" width="100" height="40" rx="6" fill="rgba(30,41,59,0.4)" stroke="#64748b" stroke-width="1.5"/>
<text x="920" y="105" fill="white" font-size="10" font-weight="600" text-anchor="middle">IPA → eIM</text>

<!-- ===== STATE MACHINE ===== -->
<rect x="30" y="150" width="250" height="22" rx="4" fill="rgba(76,29,149,0.3)" stroke="#a78bfa" stroke-width="1"/>
<text x="155" y="165" fill="#a78bfa" font-size="10" font-weight="600" text-anchor="middle">Profile State Machine</text>

<!-- Disabled state -->
<rect x="100" y="195" width="200" height="70" rx="10" fill="rgba(76,29,149,0.3)" stroke="#a78bfa" stroke-width="2"/>
<text x="200" y="222" fill="white" font-size="13" font-weight="600" text-anchor="middle">DISABLED</text>
<text x="200" y="242" fill="#94a3b8" font-size="9" text-anchor="middle">Profile installed, inactive</text>

<!-- Enabled state -->
<rect x="420" y="195" width="200" height="70" rx="10" fill="rgba(6,78,59,0.35)" stroke="#34d399" stroke-width="2"/>
<text x="520" y="222" fill="white" font-size="13" font-weight="600" text-anchor="middle">ENABLED</text>
<text x="520" y="242" fill="#94a3b8" font-size="9" text-anchor="middle">Profile active on network</text>

<!-- Enable arrow -->
<line x1="300" y1="220" x2="418" y2="215" stroke="#34d399" stroke-width="2" marker-end="url(#a14g)"/>
<text x="360" y="208" fill="#34d399" font-size="9">EnableProfile</text>
<text x="360" y="236" fill="#94a3b8" font-size="7" text-anchor="middle">checks PPR+PPE</text>

<!-- Disable arrow -->
<line x1="420" y1="250" x2="302" y2="245" stroke="#a78bfa" stroke-width="2" marker-end="url(#a14v)"/>
<text x="360" y="270" fill="#a78bfa" font-size="9">DisableProfile</text>
<text x="360" y="288" fill="#94a3b8" font-size="7" text-anchor="middle">PPR1 must allow</text>

<!-- Delete from Disabled -->
<rect x="100" y="330" width="200" height="60" rx="8" fill="rgba(136,19,55,0.25)" stroke="#fb7185" stroke-width="1.5" stroke-dasharray="5,3"/>
<text x="200" y="358" fill="#fb7185" font-size="12" font-weight="600" text-anchor="middle">REMOVED</text>
<text x="200" y="378" fill="#94a3b8" font-size="8" text-anchor="middle">ISD-P deleted</text>

<line x1="200" y1="265" x2="200" y2="328" stroke="#fb7185" stroke-width="2" marker-end="url(#a14r)"/>
<text x="215" y="298" fill="#fb7185" font-size="9">DeleteProfile</text>
<text x="215" y="316" fill="#94a3b8" font-size="7" text-anchor="middle">PPR2 must allow</text>

<!-- Rollback -->
<path d="M 520 265 Q 520 310 620 310 Q 720 310 720 270" fill="none" stroke="#fb923c" stroke-width="1.5" stroke-dasharray="6,3" marker-end="url(#a14o)"/>
<text x="650" y="305" fill="#fb923c" font-size="9">RollbackProfile</text>
<text x="650" y="325" fill="#94a3b8" font-size="7" text-anchor="middle">IPA connectivity loss recovery</text>

<!-- ===== SIX PSMO TYPES ===== -->
<rect x="30" y="420" width="300" height="22" rx="4" fill="rgba(8,51,68,0.3)" stroke="#22d3ee" stroke-width="1"/>
<text x="180" y="435" fill="#22d3ee" font-size="10" font-weight="600" text-anchor="middle">Six PSMO Types</text>

<rect x="30" y="450" width="290" height="42" rx="6" fill="rgba(6,78,59,0.2)" stroke="#34d399" stroke-width="1"/>
<text x="175" y="468" fill="white" font-size="10" font-weight="600" text-anchor="middle">EnableProfile</text>
<text x="175" y="484" fill="#94a3b8" font-size="8" text-anchor="middle">Disabled → Enabled</text>

<rect x="340" y="450" width="290" height="42" rx="6" fill="rgba(76,29,149,0.2)" stroke="#a78bfa" stroke-width="1"/>
<text x="485" y="468" fill="white" font-size="10" font-weight="600" text-anchor="middle">DisableProfile</text>
<text x="485" y="484" fill="#94a3b8" font-size="8" text-anchor="middle">Enabled → Disabled</text>

<rect x="650" y="450" width="290" height="42" rx="6" fill="rgba(136,19,55,0.2)" stroke="#fb7185" stroke-width="1"/>
<text x="795" y="468" fill="white" font-size="10" font-weight="600" text-anchor="middle">DeleteProfile</text>
<text x="795" y="484" fill="#94a3b8" font-size="8" text-anchor="middle">Disabled → Removed</text>

<rect x="30" y="505" width="290" height="42" rx="6" fill="rgba(251,146,60,0.2)" stroke="#fb923c" stroke-width="1"/>
<text x="175" y="523" fill="white" font-size="10" font-weight="600" text-anchor="middle">RollbackProfile</text>
<text x="175" y="539" fill="#94a3b8" font-size="8" text-anchor="middle">Revert to pre-PSMO state</text>

<rect x="340" y="505" width="290" height="42" rx="6" fill="rgba(120,53,15,0.2)" stroke="#fbbf24" stroke-width="1"/>
<text x="485" y="523" fill="white" font-size="10" font-weight="600" text-anchor="middle">SetFallbackAttribute</text>
<text x="485" y="539" fill="#94a3b8" font-size="8" text-anchor="middle">Designate recovery profile</text>

<rect x="650" y="505" width="290" height="42" rx="6" fill="rgba(120,53,15,0.15)" stroke="#fbbf24" stroke-width="1" stroke-dasharray="4,2"/>
<text x="795" y="523" fill="white" font-size="10" font-weight="600" text-anchor="middle">UnsetFallbackAttribute</text>
<text x="795" y="539" fill="#94a3b8" font-size="8" text-anchor="middle">Remove fallback designation</text>

<!-- Immediate Enable callout -->
<rect x="30" y="560" width="940" height="30" rx="6" fill="rgba(34,211,238,0.08)" stroke="#22d3ee" stroke-width="0.8" stroke-dasharray="4,2"/>
<text x="500" y="579" fill="#22d3ee" font-size="9" text-anchor="middle">Special: ImmediateEnable — newly downloaded profile is enabled without a separate PSMO cycle (first-boot provisioning)</text>
</svg>
